<?xml version="1.0" encoding="UTF-8" standalone="no"?>
<svg width="291px" height="336px" viewBox="0 0 291 336" version="1.1" xmlns="http://www.w3.org/2000/svg" xmlns:xlink="http://www.w3.org/1999/xlink" xmlns:sketch="http://www.bohemiancoding.com/sketch/ns">
    <title>face_calvin_happy</title>
    <description>Created with Sketch (http://www.bohemiancoding.com/sketch)</description>
    <defs></defs>
    <g id="Page-1" stroke="none" stroke-width="1" fill="none" fill-rule="evenodd" sketch:type="MSPage">
        <g id="happy" sketch:type="MSLayerGroup" transform="translate(2.000000, 2.000000)">
            <g id="eye-right" transform="translate(138.000000, 141.000000)" sketch:type="MSShapeGroup">
                <path d="M48.0128571,118.607715 C65.9422356,118.607715 80.4768671,100.40643 80.4768671,77.9540048 C80.4768671,55.5015794 65.9422356,37.3002945 48.0128571,37.3002945 C30.0834785,37.3002945 15.548847,55.5015794 15.548847,77.9540048 C15.548847,100.40643 30.0834785,118.607715 48.0128571,118.607715 Z" id="eye-right-white" fill="#FFFFFF" transform="translate(48.012857, 77.954005) rotate(28.000000) translate(-48.012857, -77.954005) "></path>
                <path d="M43.5,86 C48.1944206,86 52,82.4182782 52,78 C52,73.5817218 48.1944206,70 43.5,70 C38.8055794,70 35,73.5817218 35,78 C35,82.4182782 38.8055794,86 43.5,86 Z" id="eye-right-iris" fill="#417505"></path>
                <path d="M43.5,81 C44.8807119,81 46,79.8807119 46,78.5 C46,77.1192881 44.8807119,76 43.5,76 C42.1192881,76 41,77.1192881 41,78.5 C41,79.8807119 42.1192881,81 43.5,81 Z" id="eye-right-pupil" fill="#000000"></path>
                <path d="M36.0718453,64.8489378 C47.0363687,54.2581448 66.0177895,44.4658226 95.9378816,51.1115873 C110.874224,35.38309 80.8650731,-7.44309177 40.1873123,1.12071102 C-0.490448739,9.68451211 25.1073218,75.4397306 36.0718453,64.8489378 Z" id="eye-right-lid" stroke="#000000" stroke-width="3" fill="#FFD6A1" transform="translate(58.500000, 33.000000) scale(-1, 1) translate(-58.500000, -33.000000) "></path>
            </g>
            <g id="eye-left" transform="translate(47.000000, 141.000000)" sketch:type="MSShapeGroup">
                <path d="M48.3067389,115.877506 C66.2361174,115.877506 80.7707489,97.676221 80.7707489,75.2237956 C80.7707489,52.7713703 66.2361174,34.5700853 48.3067389,34.5700853 C30.3773603,34.5700853 15.8427288,52.7713703 15.8427288,75.2237956 C15.8427288,97.676221 30.3773603,115.877506 48.3067389,115.877506 Z" id="eye-left-white" fill="#FFFFFF" transform="translate(48.342729, 75.070085) rotate(-25.000000) translate(-48.342729, -75.070085) "></path>
                <ellipse id="eye-left-iris" fill="#417505" cx="53.5" cy="76" rx="8.5" ry="8"></ellipse>
                <path d="M53.5,79 C54.8807119,79 56,77.8807119 56,76.5 C56,75.1192881 54.8807119,74 53.5,74 C52.1192881,74 51,75.1192881 51,76.5 C51,77.8807119 52.1192881,79 53.5,79 Z" id="eye-left-pupil" fill="#000000"></path>
                <path d="M17.6640879,64.894775 C28.5767428,54.3323856 47.4683707,44.5663256 77.2469237,51.1942669 C92.1126082,35.5079521 62.2454181,-7.20337345 21.7600864,1.33746195 C-18.7252457,9.87829564 6.75143277,75.4571642 17.6640879,64.894775 Z" id="eye-left-lid" stroke="#000000" stroke-width="3" fill="#FFD6A1"></path>
            </g>
            <g id="statics" sketch:type="MSShapeGroup">
                <path d="M48.5756287,263.191764 C60.6983777,334.720997 205.512129,369.304859 233.104024,271.690131 C290.21781,258.71442 270.946906,162.323302 233.689114,227.281532 C248.2237,167.067561 273.493783,139.385655 244.678747,77.8532431 C215.863712,16.3208302 49.8040545,11.6533515 24.5895848,71.8011368 C-0.624882185,131.948923 41.4777717,197.189976 46.7303447,233.503078 C8.72861448,140.285793 -10.3066676,271.690128 48.5756287,263.191764 Z M88.7333799,185.653902 C63.3455587,188.056988 71.2633771,211.5698 77.6504394,224.302149 C84.037502,237.034497 109.674389,249.232428 119.45128,231.512693 C125.386297,220.756009 108.554526,183.77773 88.7333799,185.653902 Z M162.214683,231.279121 C162.214677,239.440468 195.978858,258.600881 213.60029,208.911032 C217.960273,196.616521 194.729049,172.415404 174.975439,194.587768 C162.214683,208.911032 162.214685,227.213259 162.214683,231.279121 Z" id="head" stroke="#000000" stroke-width="3" fill="#FFD6A1"></path>
                <path d="M37.3162694,254.942006 C37.3162694,254.942006 23.4149184,245.99383 27.9281578,236.308529 C29.7966036,232.29889 14.5839374,228.420527 22.6376268,242.511616" id="ear-left-stroke" stroke="#000000" stroke-width="2"></path>
                <path d="M257.131396,237.250399 C257.131396,232.730952 253.435288,226.042274 238.366643,243.215151" id="ear-right-stroke" stroke="#000000" stroke-width="2"></path>
                <g id="hair">
                    <path d="M17.1085869,201.791729 C33.0992816,204.844249 39.0261417,214.900716 44.8196164,232.478508 C46.9746539,220.766124 52.3437155,192.589135 46.9746539,186.952679 C41.6055923,181.316224 33.5255256,134.28927 40.2500897,134.289282 C46.9746538,134.289292 81.2937581,109.268079 81.2937584,106.024932 C81.2937587,102.781786 66.8857886,145.498653 62.3484901,145.498654 C57.8111916,145.498655 124.01857,121.179029 124.018568,113.601981 C124.018566,106.024932 123.303753,137.56155 117.699066,143.198005 C112.09438,148.834461 175.522382,158.129715 211.546449,109.564595 C217.442356,106.024932 224.873788,141.151515 224.873794,150.502365 C224.873799,159.853214 242.013487,136.359599 242.01349,131.731829 C242.013493,127.104059 231.452747,231.581017 231.452747,231.581017 C231.452747,231.581017 245.412831,229.91311 263.765072,201.791728 C282.117314,173.670345 311.014804,107.206871 251.872654,74.4777249 C297.292576,51.8763054 257.331726,57.9231183 249.67261,61.9657995 C246.307682,51.8392413 235.479543,16.2572982 228.458463,16.2572954 C228.45847,24.8324382 237.541923,51.8471849 237.541919,54.3596291 C200.8348,-21.4267371 69.3765348,-15.5480673 17.108586,59.1647793 C-11.4178625,99.9410554 1.11789207,198.739208 17.1085869,201.791729 Z" stroke="#000000" stroke-width="3" fill="#8B572A"></path>
                    <path d="M98.8160039,101.446766 C70.4545915,81.4570565 -62.6330224,181.615111 60.1065969,35.0822281" id="hair-stroke-3" stroke="#432F1D" stroke-width="2"></path>
                    <path d="M240.765615,190.453347 C259.567388,98.148629 267.848374,150.793592 267.848377,169.32538 C267.848379,187.857169 284.933044,137.166896 284.933044,137.166896" id="hair-stroke-2" stroke="#432F1D" stroke-width="2"></path>
                    <path d="M210.391985,91.0433501 C208.368866,91.0433502 215.04732,90.8164962 215.04732,90.8164962 C215.04732,90.8164962 202.897899,82.6370622 202.8979,82.1040241 C202.8979,81.570986 223.087379,89.2292412 225.35483,89.2292421 C227.622281,89.2292428 209.862614,69.4982959 205.925617,68.45446 C201.98862,67.4106238 231.94182,77.6095236 238.721567,89.9861716 C245.501314,102.362819 236.090847,44.8321087 198.683263,28.2942046" id="hair-stroke-1" stroke="#432F1D" stroke-width="2"></path>
                </g>
                <path d="M124.369586,252.537579 C124.369586,252.537579 119.230858,260.826388 122.89899,263.264569 C126.567123,265.702749 131.575994,263.350841 133.253318,265.961774 C139.438173,275.589159 150.113827,272.0096 154.005818,267.111544 C156.217968,264.327561 165.283669,264.256018 167.235375,261.410441 C169.187081,258.564863 162.383007,250.566445 162.383007,250.566445" id="nose" stroke="#000000" stroke-width="2"></path>
            </g>
            <path d="M79.0915047,275.356633 C131.944776,313.761468 167.371748,307.052276 201.649084,275.356633" id="mouth" stroke="#000000" stroke-width="4" sketch:type="MSShapeGroup"></path>
            <path d="M55.4617063,172.122957 C55.4617063,172.122957 62.242487,151.385279 84.5422289,146.780345 C106.841969,142.175409 125.875314,158.369916 125.875314,158.369916" id="eyebrow-left" stroke="#432F1D" stroke-width="7" sketch:type="MSShapeGroup"></path>
            <path d="M158.656554,158.586704 C158.656554,158.586704 176.652376,141.979136 199.248271,147.374707 C221.844165,152.770279 223.796367,168.464842 223.796367,168.464842" id="eyebrow-right" stroke="#432F1D" stroke-width="7" sketch:type="MSShapeGroup"></path>
        </g>
    </g>
</svg>