<?xml version="1.0" encoding="UTF-8" standalone="no"?>
<svg width="286px" height="375px" viewBox="0 0 286 375" version="1.1" xmlns="http://www.w3.org/2000/svg" xmlns:xlink="http://www.w3.org/1999/xlink" xmlns:sketch="http://www.bohemiancoding.com/sketch/ns">
    <title>face_judy_neutral</title>
    <description>Created with Sketch (http://www.bohemiancoding.com/sketch)</description>
    <defs></defs>
    <g id="Page-1" stroke="none" stroke-width="1" fill="none" fill-rule="evenodd" sketch:type="MSPage">
        <g id="judy_neutral" sketch:type="MSLayerGroup" transform="translate(-10.000000, 1.000000)">
            <path d="M255.560506,173.335895 C263.560994,144.541888 269.860957,108.468627 267.146196,83.0806228 C262.335794,38.0945369 202.575841,-6.21655412 147.818163,0.810504274 C93.0604848,7.83760911 70.4211632,52.2675866 62.7733399,77.3092433 C55.1255164,102.350899 52.3910489,182.988263 52.3910481,196.406096 C52.3910472,209.823929 54.5419995,227.844735 46.1678804,249.323199 C37.7937615,270.801664 29.5624084,301.001892 26.1357972,331.239335 C24.4655883,345.977763 71.9673834,322.50506 122.388897,293.163892 C107.678567,283.317351 95.945206,270.342832 90.7698382,260.956334 C81.2907576,243.764248 58.9131131,162.165416 78.7921795,101.779799 C104.184566,24.6466572 235.547913,48.6193293 249.173522,107.928475 C254.626335,131.663314 256.150986,153.859519 255.560506,173.335895 Z" id="hair" stroke="#000000" stroke-width="2" fill="#8B572A" sketch:type="MSShapeGroup"></path>
            <g id="ear-left" transform="translate(47.000000, 135.000000)" stroke="#000000" stroke-width="2" sketch:type="MSShapeGroup">
                <path d="M26.0252736,27.5495783 C26.0252736,27.5495783 16.3134072,-4.28324524 4.05640396,0.751157762 C-8.20059927,5.7855609 10.0467848,70.4196 18.0360294,75.0877541 C26.0252741,79.7559081 24.9203107,82.4872751 29.3836117,75.9164753 C33.8469128,69.3456756 26.0252736,27.5495783 26.0252736,27.5495783 Z" id="ear-left-outer" fill="#FFD8A6"></path>
                <path d="M7.77150096,10.2691155 C7.77151489,10.269104 0.790425309,16.4503605 7.77150106,36.1091232" id="ear-left-stroke"></path>
            </g>
            <g id="ear-right" transform="translate(245.000000, 146.000000)" stroke="#000000" stroke-width="2" sketch:type="MSShapeGroup">
                <path d="M9.24656817,26.1770734 C15.8173676,9.36676025 18.8746302,-0.320272534 30.4487932,-0.320276234 C42.0229563,-0.320280188 30.4487926,69.0005474 10.9691908,69.0005398 C-8.51041113,69.0005325 2.67576904,42.9873866 9.24656817,26.1770734 Z" id="ear-right-outer" fill="#FFD8A6"></path>
                <path d="M26.7995365,7.12677309 C29.7513873,9.9681798 30.8988876,29.0393272 23.3925614,42.6839416" id="ear-right-stroke"></path>
            </g>
            <g id="eye-right" transform="translate(181.000000, 141.000000)" sketch:type="MSShapeGroup">
                <path d="M25,39 C38.8071194,39 50,30.2695532 50,19.5 C50,8.73044685 38.8071194,0 25,0 C11.1928806,0 0,8.73044685 0,19.5 C0,30.2695532 11.1928806,39 25,39 Z" id="eye-white-right" fill="#FFFFFF"></path>
                <circle id="eye-iris-right" fill="#5A5905" cx="25.5" cy="17.5" r="8.5"></circle>
                <circle id="eye-pupil-right" fill="#000000" cx="25.5" cy="17.5" r="2.5"></circle>
            </g>
            <g id="eye-left" transform="translate(94.000000, 138.000000)" sketch:type="MSShapeGroup">
                <path d="M25,39 C38.8071194,39 50,30.2695532 50,19.5 C50,8.73044685 38.8071194,0 25,0 C11.1928806,0 0,8.73044685 0,19.5 C0,30.2695532 11.1928806,39 25,39 Z" id="eye-white-left" fill="#FFFFFF"></path>
                <circle id="eye-iris-left" fill="#5A5905" cx="25.5" cy="17.5" r="8.5"></circle>
                <circle id="eye-pupil-left" fill="#000000" cx="25.5" cy="17.5" r="2.5"></circle>
            </g>
            <path d="M162.20379,307.377133 C130.727906,307.377132 99.2489179,278.14842 89.7698382,260.956334 C80.2907576,243.764248 57.9131131,162.165416 77.7921795,101.779799 C103.184566,24.6466572 234.547913,48.6193293 248.173522,107.928475 C263.975097,176.709097 246.789211,232.56875 240.736757,246.762544 C234.684304,260.956339 193.679674,307.377133 162.20379,307.377133 Z M188.370081,161.85759 C188.370081,161.85759 199.135328,166.280336 209.287834,166.280334 C219.44034,166.280333 225.731587,159.130944 225.731587,159.130944 C225.731587,159.130944 217.19674,151.11642 207.608045,151.116419 C198.019351,151.116419 188.370081,161.85759 188.370081,161.85759 Z M99.0270219,154.777669 C99.0270219,154.777669 111.259759,147.798814 118.722327,147.798813 C126.184895,147.798812 135.446395,156.403703 135.446395,156.403703 C135.446395,156.403703 124.690781,164.050163 117.429094,164.050162 C110.167407,164.050162 99.0270219,154.777669 99.0270219,154.777669 Z" id="head" stroke="#000000" stroke-width="3" fill="#FFD8A6" sketch:type="MSShapeGroup"></path>
            <g id="nose" transform="translate(146.000000, 149.000000)" sketch:type="MSShapeGroup">
                <path d="M27.6648123,0.408175272 C27.6647949,14.4160156 28.475792,41.9612916 34.891085,52.7322412" id="nose-side" stroke="#000000" stroke-width="2"></path>
                <path d="M25.0062115,69.838511 C38.1081345,71.1755195 32.662452,58.9438901 25.0062115,63.7638886 C22.9810237,65.038849 14.0260293,66.4358901 9.35162833,63.7638887 C-1.28268438,57.6850572 -3.24733217,70.5062439 6.20752237,69.8385112 C8.95764212,69.6442888 21.7445323,69.5056672 25.0062115,69.838511 Z" id="nose-holes" fill="#000000"></path>
            </g>
            <path d="M90.6679223,133.9597 C100.560064,125.357772 130.144866,122.196073 146.309345,133.911636" id="eyebrow-left" stroke="#8B572A" stroke-width="5" sketch:type="MSShapeGroup"></path>
            <path d="M192.410092,134.748333 C202.838447,127.717407 229.993023,127.032496 240.184064,139.568151" id="eyebrow-right" stroke="#8B572A" stroke-width="5" sketch:type="MSShapeGroup"></path>
            <g id="mouth" transform="translate(123.000000, 241.000000)" stroke="#000000" stroke-width="2" fill="#F37171" sketch:type="MSShapeGroup">
                <path d="M0.549871485,9.59401884 C11.5351214,9.59401944 28.395786,-0.635338769 30.8167038,0.569047622 C33.2376214,1.77343403 33.8075,3.88113033 38.7695265,3.88113012 C43.7315529,3.88112994 45.0783253,1.13289212 48.1280118,0.569047622 C51.1776981,0.00520310745 64.6757737,9.59401888 76.5320988,9.5940185 C88.3884239,9.59401811 -10.4353784,9.59401817 0.549871485,9.59401884 Z" id="mouth-upper-lip"></path>
                <path d="M-0.2409309,9.89505109 C4.27128252,9.89505005 68.8046006,11.2863242 75.0260671,9.89505109 C81.2475337,8.50377874 52.9069295,23.969514 39.5406649,23.969514 C32.7705524,23.969514 -0.557172444,9.89505116 -0.2409309,9.89505109 Z" id="mouth-lower-lip"></path>
            </g>
        </g>
    </g>
</svg>