<?xml version="1.0" encoding="UTF-8" standalone="no"?>
<svg width="291px" height="336px" viewBox="0 0 291 336" version="1.1" xmlns="http://www.w3.org/2000/svg" xmlns:xlink="http://www.w3.org/1999/xlink" xmlns:sketch="http://www.bohemiancoding.com/sketch/ns">
    <title>face_calvin_sad</title>
    <description>Created with Sketch (http://www.bohemiancoding.com/sketch)</description>
    <defs></defs>
    <g id="Page-1" stroke="none" stroke-width="1" fill="none" fill-rule="evenodd" sketch:type="MSPage">
        <g id="sad" sketch:type="MSLayerGroup" transform="translate(2.000000, 2.000000)">
            <g id="eye-right" transform="translate(138.000000, 159.000000)" sketch:type="MSShapeGroup">
                <path d="M48.0128571,100.607715 C65.9422356,100.607715 80.4768671,82.4064301 80.4768671,59.9540048 C80.4768671,37.5015794 65.9422356,19.3002945 48.0128571,19.3002945 C30.0834785,19.3002945 15.548847,37.5015794 15.548847,59.9540048 C15.548847,82.4064301 30.0834785,100.607715 48.0128571,100.607715 Z" id="eye-right-white" fill="#FFFFFF" transform="translate(48.012857, 59.954005) rotate(28.000000) translate(-48.012857, -59.954005) "></path>
                <g id="eye-right-gaze" transform="translate(32.000000, 59.000000)">
                    <path d="M8.5,16 C13.1944206,16 17,12.4182782 17,8 C17,3.58172178 13.1944206,0 8.5,0 C3.80557939,0 0,3.58172178 0,8 C0,12.4182782 3.80557939,16 8.5,16 Z" id="eye-right-iris" fill="#417505"></path>
                    <path d="M8.5,11 C9.88071194,11 11,9.88071194 11,8.5 C11,7.11928806 9.88071194,6 8.5,6 C7.11928806,6 6,7.11928806 6,8.5 C6,9.88071194 7.11928806,11 8.5,11 Z" id="eye-right-pupil" fill="#000000"></path>
                </g>
                <path d="M36.0718453,64.8489378 C51.4709587,68.9084015 70.8323631,61.6581001 95.9378816,51.1115873 C110.874224,35.38309 80.8650731,-7.44309177 40.1873123,1.12071102 C-0.490448739,9.68451211 20.6727313,60.7894757 36.0718453,64.8489378 Z" id="eye-right-lid" stroke="#000000" stroke-width="3" fill="#FFD6A1" transform="translate(58.500000, 33.000000) scale(-1, 1) translate(-58.500000, -33.000000) "></path>
            </g>
            <g id="eye-left" transform="translate(40.000000, 162.000000)" sketch:type="MSShapeGroup">
                <path d="M55.3067389,94.8775059 C73.2361174,94.8775059 87.7707489,76.676221 87.7707489,54.2237956 C87.7707489,31.7713703 73.2361174,13.5700853 55.3067389,13.5700853 C37.3773603,13.5700853 22.8427288,31.7713703 22.8427288,54.2237956 C22.8427288,76.676221 37.3773603,94.8775059 55.3067389,94.8775059 Z" id="eye-left-white" fill="#FFFFFF" transform="translate(55.342729, 54.070085) rotate(-25.000000) translate(-55.342729, -54.070085) "></path>
                <g id="eye-left-gaze" transform="translate(56.000000, 55.000000)">
                    <ellipse id="eye-left-iris" fill="#417505" cx="8.5" cy="8" rx="8.5" ry="8"></ellipse>
                    <path d="M8.5,11 C9.88071194,11 11,9.88071194 11,8.5 C11,7.11928806 9.88071194,6 8.5,6 C7.11928806,6 6,7.11928806 6,8.5 C6,9.88071194 7.11928806,11 8.5,11 Z" id="eye-left-pupil" fill="#000000"></path>
                </g>
                <path d="M19.6640879,64.894775 C36.345957,64.8947749 52.3512976,61.7808032 79.2469237,51.1942669 C94.1126082,35.5079521 64.2454181,-7.20337345 23.7600864,1.33746195 C-16.7252457,9.87829564 2.63757127,64.8947771 19.6640879,64.894775 Z" id="eye-left-lid" stroke="#000000" stroke-width="3" fill="#FFD6A1"></path>
            </g>
            <g id="statics" sketch:type="MSShapeGroup">
                <path d="M48.5756287,263.191764 C60.6983777,334.720997 205.512129,369.304859 233.104024,271.690131 C290.21781,258.71442 270.946906,162.323302 233.689114,227.281532 C248.2237,167.067561 273.493783,139.385655 244.678747,77.8532431 C215.863712,16.3208302 49.8040545,11.6533515 24.5895848,71.8011368 C-0.624882185,131.948923 41.4777717,197.189976 46.7303447,233.503078 C8.72861448,140.285793 -10.3066676,271.690128 48.5756287,263.191764 Z M88.7333799,185.653902 C63.3455587,188.056988 71.2633771,211.5698 77.6504394,224.302149 C84.037502,237.034497 109.674389,249.232428 119.45128,231.512693 C125.386297,220.756009 108.554526,183.77773 88.7333799,185.653902 Z M162.214683,231.279121 C162.214677,239.440468 195.978858,258.600881 213.60029,208.911032 C217.960273,196.616521 194.729049,172.415404 174.975439,194.587768 C162.214683,208.911032 162.214685,227.213259 162.214683,231.279121 Z" id="head" stroke="#000000" stroke-width="3" fill="#FFD6A1"></path>
                <path d="M37.3162694,254.942006 C37.3162694,254.942006 23.4149184,245.99383 27.9281578,236.308529 C29.7966036,232.29889 14.5839374,228.420527 22.6376268,242.511616" id="ear-left-stroke" stroke="#000000" stroke-width="2"></path>
                <path d="M257.131396,237.250399 C257.131396,232.730952 253.435288,226.042274 238.366643,243.215151" id="ear-right-stroke" stroke="#000000" stroke-width="2"></path>
                <g id="hair">
                    <path d="M17.1085869,201.791729 C33.0992816,204.844249 39.0261417,214.900716 44.8196164,232.478508 C46.9746539,220.766124 52.3437155,192.589135 46.9746539,186.952679 C41.6055923,181.316224 33.5255256,134.28927 40.2500897,134.289282 C46.9746538,134.289292 81.2937581,109.268079 81.2937584,106.024932 C81.2937587,102.781786 66.8857886,145.498653 62.3484901,145.498654 C57.8111916,145.498655 124.01857,121.179029 124.018568,113.601981 C124.018566,106.024932 123.303753,137.56155 117.699066,143.198005 C112.09438,148.834461 175.522382,158.129715 211.546449,109.564595 C217.442356,106.024932 224.873788,141.151515 224.873794,150.502365 C224.873799,159.853214 242.013487,136.359599 242.01349,131.731829 C242.013493,127.104059 231.452747,231.581017 231.452747,231.581017 C231.452747,231.581017 245.412831,229.91311 263.765072,201.791728 C282.117314,173.670345 311.014804,107.206871 251.872654,74.4777249 C297.292576,51.8763054 257.331726,57.9231183 249.67261,61.9657995 C246.307682,51.8392413 235.479543,16.2572982 228.458463,16.2572954 C228.45847,24.8324382 237.541923,51.8471849 237.541919,54.3596291 C200.8348,-21.4267371 69.3765348,-15.5480673 17.108586,59.1647793 C-11.4178625,99.9410554 1.11789207,198.739208 17.1085869,201.791729 Z" stroke="#000000" stroke-width="3" fill="#8B572A"></path>
                    <path d="M98.8160039,101.446766 C70.4545915,81.4570565 -62.6330224,181.615111 60.1065969,35.0822281" id="hair-stroke-3" stroke="#432F1D" stroke-width="2"></path>
                    <path d="M240.765615,190.453347 C259.567388,98.148629 267.848374,150.793592 267.848377,169.32538 C267.848379,187.857169 284.933044,137.166896 284.933044,137.166896" id="hair-stroke-2" stroke="#432F1D" stroke-width="2"></path>
                    <path d="M210.391985,91.0433501 C208.368866,91.0433502 215.04732,90.8164962 215.04732,90.8164962 C215.04732,90.8164962 202.897899,82.6370622 202.8979,82.1040241 C202.8979,81.570986 223.087379,89.2292412 225.35483,89.2292421 C227.622281,89.2292428 209.862614,69.4982959 205.925617,68.45446 C201.98862,67.4106238 231.94182,77.6095236 238.721567,89.9861716 C245.501314,102.362819 236.090847,44.8321087 198.683263,28.2942046" id="hair-stroke-1" stroke="#432F1D" stroke-width="2"></path>
                </g>
                <path d="M124.369586,252.537579 C124.369586,252.537579 119.230858,260.826388 122.89899,263.264569 C126.567123,265.702749 131.575994,263.350841 133.253318,265.961774 C139.438173,275.589159 150.113827,272.0096 154.005818,267.111544 C156.217968,264.327561 165.283669,264.256018 167.235375,261.410441 C169.187081,258.564863 162.383007,250.566445 162.383007,250.566445" id="nose" stroke="#000000" stroke-width="2"></path>
            </g>
            <path d="M84.5515336,297.830856 C114.678432,285.853623 150.123266,277.773366 189.351281,297.830856" id="mouth" stroke="#000000" stroke-width="4" sketch:type="MSShapeGroup"></path>
            <path d="M55.4617063,197.122957 C55.4617063,197.122957 63.8482391,179.617722 70.640908,177.201704 C77.4335767,174.785685 125.875314,174.369916 125.875314,174.369916" id="eyebrow-left" stroke="#432F1D" stroke-width="7" sketch:type="MSShapeGroup"></path>
            <path d="M158.656554,174.586704 C158.656554,174.586704 204.363225,174.708565 213.205148,178.249424 C222.047072,181.790284 223.796367,194.464842 223.796367,194.464842" id="eyebrow-right" stroke="#432F1D" stroke-width="7" sketch:type="MSShapeGroup"></path>
        </g>
    </g>
</svg>