<?xml version="1.0" encoding="UTF-8" standalone="no"?>
<svg width="291px" height="336px" viewBox="0 0 291 336" version="1.1" xmlns="http://www.w3.org/2000/svg" xmlns:xlink="http://www.w3.org/1999/xlink" xmlns:sketch="http://www.bohemiancoding.com/sketch/ns">
    <title>face_calvin_neutral</title>
    <description>Created with Sketch (http://www.bohemiancoding.com/sketch)</description>
    <defs></defs>
    <g id="Page-1" stroke="none" stroke-width="1" fill="none" fill-rule="evenodd" sketch:type="MSPage">
        <path d="M188.012857,261.607715 C205.942236,261.607715 220.476867,243.40643 220.476867,220.954005 C220.476867,198.501579 205.942236,180.300294 188.012857,180.300294 C170.083478,180.300294 155.548847,198.501579 155.548847,220.954005 C155.548847,243.40643 170.083478,261.607715 188.012857,261.607715 Z" id="eye-right-white" fill="#FFFFFF" sketch:type="MSShapeGroup" transform="translate(188.012857, 220.954005) rotate(28.000000) translate(-188.012857, -220.954005) "></path>
        <path d="M183.5,229 C188.194421,229 192,225.418278 192,221 C192,216.581722 188.194421,213 183.5,213 C178.805579,213 175,216.581722 175,221 C175,225.418278 178.805579,229 183.5,229 Z" id="eye-right-iris" fill="#417505" sketch:type="MSShapeGroup"></path>
        <path d="M183.5,224 C184.880712,224 186,222.880712 186,221.5 C186,220.119288 184.880712,219 183.5,219 C182.119288,219 181,220.119288 181,221.5 C181,222.880712 182.119288,224 183.5,224 Z" id="eye-right-pupil" fill="#000000" sketch:type="MSShapeGroup"></path>
        <path d="M176.071845,214.848938 C187.036369,204.258145 206.01779,194.465823 235.937882,201.111587 C250.874224,185.38309 220.865073,142.556908 180.187312,151.120711 C139.509551,159.684512 165.107322,225.439731 176.071845,214.848938 Z" id="eye-right-lid" stroke="#000000" stroke-width="3" fill="#FFD6A1" sketch:type="MSShapeGroup" transform="translate(198.500000, 183.000000) scale(-1, 1) translate(-198.500000, -183.000000) "></path>
        <path d="M97.3067389,258.877506 C115.236117,258.877506 129.770749,240.676221 129.770749,218.223796 C129.770749,195.77137 115.236117,177.570085 97.3067389,177.570085 C79.3773603,177.570085 64.8427288,195.77137 64.8427288,218.223796 C64.8427288,240.676221 79.3773603,258.877506 97.3067389,258.877506 Z" id="eye-left-white" fill="#FFFFFF" sketch:type="MSShapeGroup" transform="translate(97.342729, 218.070085) rotate(-25.000000) translate(-97.342729, -218.070085) "></path>
        <ellipse id="eye-left-iris" fill="#417505" sketch:type="MSShapeGroup" cx="102.5" cy="219" rx="8.5" ry="8"></ellipse>
        <path d="M102.5,222 C103.880712,222 105,220.880712 105,219.5 C105,218.119288 103.880712,217 102.5,217 C101.119288,217 100,218.119288 100,219.5 C100,220.880712 101.119288,222 102.5,222 Z" id="eye-left-pupil" fill="#000000" sketch:type="MSShapeGroup"></path>
        <path d="M66.6640879,214.894775 C77.5767428,204.332386 96.4683707,194.566326 126.246924,201.194267 C141.112608,185.507952 111.245418,142.796627 70.7600864,151.337462 C30.2747543,159.878296 55.7514328,225.457164 66.6640879,214.894775 Z" id="eye-left-lid" stroke="#000000" stroke-width="3" fill="#FFD6A1" sketch:type="MSShapeGroup"></path>
        <path d="M50.5756287,265.191764 C62.6983777,336.720997 207.512129,371.304859 235.104024,273.690131 C292.21781,260.71442 272.946906,164.323302 235.689114,229.281532 C250.2237,169.067561 275.493783,141.385655 246.678747,79.8532431 C217.863712,18.3208302 51.8040545,13.6533515 26.5895848,73.8011368 C1.37511782,133.948923 43.4777717,199.189976 48.7303447,235.503078 C10.7286145,142.285793 -8.30666756,273.690128 50.5756287,265.191764 Z M90.7333799,187.653902 C65.3455587,190.056988 73.2633771,213.5698 79.6504394,226.302149 C86.037502,239.034497 111.674389,251.232428 121.45128,233.512693 C127.386297,222.756009 110.554526,185.77773 90.7333799,187.653902 Z M164.214683,233.279121 C164.214677,241.440468 197.978858,260.600881 215.60029,210.911032 C219.960273,198.616521 196.729049,174.415404 176.975439,196.587768 C164.214683,210.911032 164.214685,229.213259 164.214683,233.279121 Z" id="head" stroke="#000000" stroke-width="3" fill="#FFD6A1" sketch:type="MSShapeGroup"></path>
        <path d="M39.3162694,256.942006 C39.3162694,256.942006 25.4149184,247.99383 29.9281578,238.308529 C31.7966036,234.29889 16.5839374,230.420527 24.6376268,244.511616" id="ear-left-stroke" stroke="#000000" stroke-width="2" sketch:type="MSShapeGroup"></path>
        <path d="M259.131396,239.250399 C259.131396,234.730952 255.435288,228.042274 240.366643,245.215151" id="ear-right-stroke" stroke="#000000" stroke-width="2" sketch:type="MSShapeGroup"></path>
        <path d="M19.1085869,203.791729 C35.0992816,206.844249 41.0261417,216.900716 46.8196164,234.478508 C48.9746539,222.766124 54.3437155,194.589135 48.9746539,188.952679 C43.6055923,183.316224 35.5255256,136.28927 42.2500897,136.289282 C48.9746538,136.289292 83.2937581,111.268079 83.2937584,108.024932 C83.2937587,104.781786 68.8857886,147.498653 64.3484901,147.498654 C59.8111916,147.498655 126.01857,123.179029 126.018568,115.601981 C126.018566,108.024932 125.303753,139.56155 119.699066,145.198005 C114.09438,150.834461 177.522382,160.129715 213.546449,111.564595 C219.442356,108.024932 226.873788,143.151515 226.873794,152.502365 C226.873799,161.853214 244.013487,138.359599 244.01349,133.731829 C244.013493,129.104059 233.452747,233.581017 233.452747,233.581017 C233.452747,233.581017 247.412831,231.91311 265.765072,203.791728 C284.117314,175.670345 313.014804,109.206871 253.872654,76.4777249 C299.292576,53.8763054 259.331726,59.9231183 251.67261,63.9657995 C248.307682,53.8392413 237.479543,18.2572982 230.458463,18.2572954 C230.45847,26.8324382 239.541923,53.8471849 239.541919,56.3596291 C202.8348,-19.4267371 71.3765348,-13.5480673 19.108586,61.1647793 C-9.41786248,101.941055 3.11789207,200.739208 19.1085869,203.791729 Z" id="hair" stroke="#000000" stroke-width="3" fill="#8B572A" sketch:type="MSShapeGroup"></path>
        <path d="M100.816004,103.446766 C72.4545915,83.4570565 -60.6330224,183.615111 62.1065969,37.0822281" id="hair-stroke-3" stroke="#432F1D" stroke-width="2" sketch:type="MSShapeGroup"></path>
        <path d="M242.765615,192.453347 C261.567388,100.148629 269.848374,152.793592 269.848377,171.32538 C269.848379,189.857169 286.933044,139.166896 286.933044,139.166896" id="hair-stroke-2" stroke="#432F1D" stroke-width="2" sketch:type="MSShapeGroup"></path>
        <path d="M212.391985,93.0433501 C210.368866,93.0433502 217.04732,92.8164962 217.04732,92.8164962 C217.04732,92.8164962 204.897899,84.6370622 204.8979,84.1040241 C204.8979,83.570986 225.087379,91.2292412 227.35483,91.2292421 C229.622281,91.2292428 211.862614,71.4982959 207.925617,70.45446 C203.98862,69.4106238 233.94182,79.6095236 240.721567,91.9861716 C247.501314,104.362819 238.090847,46.8321087 200.683263,30.2942046" id="hair-stroke-1" stroke="#432F1D" stroke-width="2" sketch:type="MSShapeGroup"></path>
        <path d="M126.369586,254.537579 C126.369586,254.537579 121.230858,262.826388 124.89899,265.264569 C128.567123,267.702749 133.575994,265.350841 135.253318,267.961774 C141.438173,277.589159 152.113827,274.0096 156.005818,269.111544 C158.217968,266.327561 167.283669,266.256018 169.235375,263.410441 C171.187081,260.564863 164.383007,252.566445 164.383007,252.566445" id="nose" stroke="#000000" stroke-width="2" sketch:type="MSShapeGroup"></path>
        <path d="M110.423654,293.321188 C113.662308,295.089233 176.094088,298.050488 179.03528,295.685838" id="mouth" stroke="#000000" stroke-width="4" sketch:type="MSShapeGroup"></path>
        <path d="M57.4617063,190.122957 C57.4617063,190.122957 65.8482391,172.617722 72.640908,170.201704 C79.4335767,167.785685 127.875314,176.369916 127.875314,176.369916" id="eyebrow-left" stroke="#432F1D" stroke-width="6" sketch:type="MSShapeGroup"></path>
        <path d="M160.656554,176.586704 C160.656554,176.586704 206.363225,166.708565 215.205148,170.249424 C224.047072,173.790284 225.796367,186.464842 225.796367,186.464842" id="eyebrow-right" stroke="#432F1D" stroke-width="6" sketch:type="MSShapeGroup"></path>
    </g>
</svg>