<?xml version="1.0" encoding="UTF-8" standalone="no"?>
<svg width="291px" height="336px" viewBox="0 0 291 336" version="1.1" xmlns="http://www.w3.org/2000/svg" xmlns:xlink="http://www.w3.org/1999/xlink" xmlns:sketch="http://www.bohemiancoding.com/sketch/ns">
    <title>face_calvin_merged</title>
    <defs></defs>
    <g class="Page 1" style="fill:none;stroke:none;stroke-width:1;" fill-rule="evenodd">
        <g class="merge" transform="translate(2.000000, 2.000000)">
            <g class="bg statics" transform="translate(60.000000, 172.000000)" style="fill:#FFFFFF;">
                <path class="eye left white" d="M40,80 C62.0913911,80 80,62.0913911 80,40 C80,17.9086089 62.0913911,0 40,0 C17.9086089,0 0,17.9086089 0,40 C0,62.0913911 17.9086089,80 40,80 Z"></path>
                <path class="eye right white" d="M123,80 C145.091391,80 163,62.0913911 163,40 C163,17.9086089 145.091391,0 123,0 C100.908609,0 83,17.9086089 83,40 C83,62.0913911 100.908609,80 123,80 Z"></path>
            </g>
            <g class="eyes angry" transform="translate(47.000000, 142.000000)" style="display:none;">
                <g class="eye right" transform="translate(109.000000, 0.000000)">
                    <g class="eye right gaze" transform="translate(17.000000, 69.000000)">
                        <circle class="eye left iris" style="fill:#417505;" cx="8.5" cy="8.5" r="8.5"></circle>
                        <circle class="eye right pupil" style="fill:#000000;" cx="8.5" cy="8.5" r="2.5"></circle>
                    </g>
                    <path class="eye right lid" d="M18.0718453,64.8489378 C29.0363687,54.2581448 48.0177895,44.4658226 77.9378816,51.1115873 C92.8742236,35.38309 62.8650731,-7.44309177 22.1873123,1.12071102 C-18.4904487,9.68451211 7.10732177,75.4397306 18.0718453,64.8489378 Z" style="fill:#FFD6A1;stroke:#000000;stroke-width:3;" transform="translate(40.500000, 33.000000) scale(-1, 1) translate(-40.500000, -33.000000) "></path>
                </g>
                <g class="eye left">
                    <g class="eye left gaze" transform="translate(45.000000, 67.000000)">
                        <circle class="eye left iris" style="fill:#417505;" cx="8.5" cy="8.5" r="8.5"></circle>
                        <circle class="eye left pupil" style="fill:#000000;" cx="8.5" cy="8.5" r="2.5"></circle>
                    </g>
                    <path class="eye left lid" d="M17.6640879,64.894775 C28.5767428,54.3323856 47.4683707,44.5663256 77.2469237,51.1942669 C92.1126082,35.5079521 62.2454181,-7.20337345 21.7600864,1.33746195 C-18.7252457,9.87829564 6.75143277,75.4571642 17.6640879,64.894775 Z" style="fill:#FFD6A1;stroke:#000000;stroke-width:3;"></path>
                </g>
            </g>
            <g class="eyes scared" transform="translate(47.000000, 148.000000)" style="display:none;">
                <g class="eye right" transform="translate(109.000000, 0.000000)">
                    <g class="eye right gaze" transform="translate(13.000000, 65.000000)">
                        <circle class="eye left iris" style="fill:#417505;" cx="8.5" cy="8.5" r="8.5"></circle>
                        <circle class="eye right pupil" style="fill:#000000;" cx="8.5" cy="8.5" r="2.5"></circle>
                    </g>
                    <path class="eye right lid" d="M18.0718453,64.8489378 C29.0363687,54.2581448 48.0177895,44.4658226 77.9378816,51.1115873 C92.8742236,35.38309 62.8650731,-7.44309177 22.1873123,1.12071102 C-18.4904487,9.68451211 7.10732177,75.4397306 18.0718453,64.8489378 Z" style="fill:#FFD6A1;stroke:#000000;stroke-width:3;" transform="translate(40.500000, 33.000000) scale(-1, 1) translate(-40.500000, -33.000000) "></path>
                </g>
                <g class="eye left">
                    <g class="eye left gaze" transform="translate(41.000000, 63.000000)">
                        <circle class="eye left iris" style="fill:#417505;" cx="8.5" cy="8.5" r="8.5"></circle>
                        <circle class="eye left pupil" style="fill:#000000;" cx="8.5" cy="8.5" r="2.5"></circle>
                    </g>
                    <path class="eye left lid" d="M17.6640879,64.894775 C28.5767428,54.3323856 47.4683707,44.5663256 77.2469237,51.1942669 C92.1126082,35.5079521 62.2454181,-7.20337345 21.7600864,1.33746195 C-18.7252457,9.87829564 6.75143277,75.4571642 17.6640879,64.894775 Z" style="fill:#FFD6A1;stroke:#000000;stroke-width:3;"></path>
                </g>
            </g>
            <g class="eyes sad" transform="translate(40.000000, 159.000000)" style="display:none;">
                <g class="eye right" transform="translate(115.000000, 0.000000)">
                    <g class="eye right gaze" transform="translate(15.000000, 59.000000)">
                        <circle class="eye left iris" style="fill:#417505;" cx="8.5" cy="8.5" r="8.5"></circle>
                        <circle class="eye right pupil" style="fill:#000000;" cx="8.5" cy="8.5" r="2.5"></circle>
                    </g>
                    <path class="eye right lid" d="M19.0718453,64.8489378 C34.4709587,68.9084015 53.8323631,61.6581001 78.9378816,51.1115873 C93.8742236,35.38309 63.8650731,-7.44309177 23.1873123,1.12071102 C-17.4904487,9.68451211 3.67273134,60.7894757 19.0718453,64.8489378 Z" style="fill:#FFD6A1;stroke:#000000;stroke-width:3;" transform="translate(41.500000, 33.000000) scale(-1, 1) translate(-41.500000, -33.000000) "></path>
                </g>
                <g class="eye left" transform="translate(0.000000, 3.000000)">
                    <g class="eye left gaze" transform="translate(56.000000, 55.000000)">
                        <circle class="eye left iris" style="fill:#417505;" cx="8.5" cy="8.5" r="8.5"></circle>
                        <circle class="eye left pupil" style="fill:#000000;" cx="8.5" cy="8.5" r="2.5"></circle>
                    </g>
                    <path class="eye left lid" d="M19.6640879,64.894775 C36.345957,64.8947749 52.3512976,61.7808032 79.2469237,51.1942669 C94.1126082,35.5079521 64.2454181,-7.20337345 23.7600864,1.33746195 C-16.7252457,9.87829564 2.63757127,64.8947771 19.6640879,64.894775 Z" style="fill:#FFD6A1;stroke:#000000;stroke-width:3;"></path>
                </g>
            </g>
            <g class="eyes happy" transform="translate(47.000000, 141.000000)" style="display:none;">
                <g class="eye right" transform="translate(109.000000, 0.000000)">
                    <g class="eye right gaze" transform="translate(17.000000, 70.000000)">
                        <circle class="eye left iris" style="fill:#417505;" cx="8.5" cy="8.5" r="8.5"></circle>
                        <circle class="eye right pupil" style="fill:#000000;" cx="8.5" cy="8.5" r="2.5"></circle>
                    </g>
                    <path class="eye right lid" d="M18.0718453,64.8489378 C29.0363687,54.2581448 48.0177895,44.4658226 77.9378816,51.1115873 C92.8742236,35.38309 62.8650731,-7.44309177 22.1873123,1.12071102 C-18.4904487,9.68451211 7.10732177,75.4397306 18.0718453,64.8489378 Z" style="fill:#FFD6A1;stroke:#000000;stroke-width:3;" transform="translate(40.500000, 33.000000) scale(-1, 1) translate(-40.500000, -33.000000) "></path>
                </g>
                <g class="eye left">
                    <g class="eye left gaze" transform="translate(45.000000, 68.000000)">
                        <circle class="eye left iris" style="fill:#417505;" cx="8.5" cy="8.5" r="8.5"></circle>
                        <circle class="eye left pupil" style="fill:#000000;" cx="8.5" cy="8.5" r="2.5"></circle>
                    </g>
                    <path class="eye left lid" d="M17.6640879,64.894775 C28.5767428,54.3323856 47.4683707,44.5663256 77.2469237,51.1942669 C92.1126082,35.5079521 62.2454181,-7.20337345 21.7600864,1.33746195 C-18.7252457,9.87829564 6.75143277,75.4571642 17.6640879,64.894775 Z" style="fill:#FFD6A1;stroke:#000000;stroke-width:3;"></path>
                </g>
            </g>
            <g class="eyes neutral" transform="translate(47.000000, 148.000000)">
                <g class="eye right" transform="translate(109.000000, 0.000000)">
                    <g class="eye right gaze" transform="translate(17.000000, 63.000000)">
                        <circle class="eye left iris" style="fill:#417505;" cx="8.5" cy="8.5" r="8.5"></circle>
                        <circle class="eye right pupil" style="fill:#000000;" cx="8.5" cy="8.5" r="2.5"></circle>
                    </g>
                    <path class="eye right lid" d="M18.0718453,64.8489378 C29.0363687,54.2581448 48.0177895,44.4658226 77.9378816,51.1115873 C92.8742236,35.38309 62.8650731,-7.44309177 22.1873123,1.12071102 C-18.4904487,9.68451211 7.10732177,75.4397306 18.0718453,64.8489378 Z" style="fill:#FFD6A1;stroke:#000000;stroke-width:3;" transform="translate(40.500000, 33.000000) scale(-1, 1) translate(-40.500000, -33.000000) "></path>
                </g>
                <g class="eye left">
                    <g class="eye left gaze" transform="translate(45.000000, 61.000000)">
                        <circle class="eye left iris" style="fill:#417505;" cx="8.5" cy="8.5" r="8.5"></circle>
                        <circle class="eye left pupil" style="fill:#000000;" cx="8.5" cy="8.5" r="2.5"></circle>
                    </g>
                    <path class="eye left lid" d="M17.6640879,64.894775 C28.5767428,54.3323856 47.4683707,44.5663256 77.2469237,51.1942669 C92.1126082,35.5079521 62.2454181,-7.20337345 21.7600864,1.33746195 C-18.7252457,9.87829564 6.75143277,75.4571642 17.6640879,64.894775 Z" style="fill:#FFD6A1;stroke:#000000;stroke-width:3;"></path>
                </g>
            </g>
            <g class="fg statics">
                <path class="head" d="M48.5756287,263.191764 C60.6983777,334.720997 205.512129,369.304859 233.104024,271.690131 C290.21781,258.71442 270.946906,162.323302 233.689114,227.281532 C248.2237,167.067561 273.493783,139.385655 244.678747,77.8532431 C215.863712,16.3208302 49.8040545,11.6533515 24.5895848,71.8011368 C-0.624882185,131.948923 41.4777717,197.189976 46.7303447,233.503078 C8.72861448,140.285793 -10.3066676,271.690128 48.5756287,263.191764 Z M88.7333799,185.653902 C63.3455587,188.056988 71.2633771,211.5698 77.6504394,224.302149 C84.037502,237.034497 109.674389,249.232428 119.45128,231.512693 C125.386297,220.756009 108.554526,183.77773 88.7333799,185.653902 Z M162.214683,231.279121 C162.214677,239.440468 195.978858,258.600881 213.60029,208.911032 C217.960273,196.616521 194.729049,172.415404 174.975439,194.587768 C162.214683,208.911032 162.214685,227.213259 162.214683,231.279121 Z" style="fill:#FFD6A1;stroke:#000000;stroke-width:3;"></path>
                <path class="ear left stroke" d="M37.3162694,254.942006 C37.3162694,254.942006 23.4149184,245.99383 27.9281578,236.308529 C29.7966036,232.29889 14.5839374,228.420527 22.6376268,242.511616" style="stroke:#000000;stroke-width:2;"></path>
                <path class="ear right stroke" d="M257.131396,237.250399 C257.131396,232.730952 253.435288,226.042274 238.366643,243.215151" style="stroke:#000000;stroke-width:2;"></path>
                <g class="hair">
                    <path d="M17.1085869,201.791729 C33.0992816,204.844249 39.0261417,214.900716 44.8196164,232.478508 C46.9746539,220.766124 52.3437155,192.589135 46.9746539,186.952679 C41.6055923,181.316224 33.5255256,134.28927 40.2500897,134.289282 C46.9746538,134.289292 81.2937581,109.268079 81.2937584,106.024932 C81.2937587,102.781786 66.8857886,145.498653 62.3484901,145.498654 C57.8111916,145.498655 124.01857,121.179029 124.018568,113.601981 C124.018566,106.024932 123.303753,137.56155 117.699066,143.198005 C112.09438,148.834461 175.522382,158.129715 211.546449,109.564595 C217.442356,106.024932 224.873788,141.151515 224.873794,150.502365 C224.873799,159.853214 242.013487,136.359599 242.01349,131.731829 C242.013493,127.104059 231.452747,231.581017 231.452747,231.581017 C231.452747,231.581017 245.412831,229.91311 263.765072,201.791728 C282.117314,173.670345 311.014804,107.206871 251.872654,74.4777249 C297.292576,51.8763054 257.331726,57.9231183 249.67261,61.9657995 C246.307682,51.8392413 235.479543,16.2572982 228.458463,16.2572954 C228.45847,24.8324382 237.541923,51.8471849 237.541919,54.3596291 C200.8348,-21.4267371 69.3765348,-15.5480673 17.108586,59.1647793 C-11.4178625,99.9410554 1.11789207,198.739208 17.1085869,201.791729 Z" style="fill:#8B572A;stroke:#000000;stroke-width:3;"></path>
                    <path class="hair stroke-3" d="M98.8160039,101.446766 C70.4545915,81.4570565 -62.6330224,181.615111 60.1065969,35.0822281" style="stroke:#432F1D;stroke-width:2;"></path>
                    <path class="hair stroke-2" d="M240.765615,190.453347 C259.567388,98.148629 267.848374,150.793592 267.848377,169.32538 C267.848379,187.857169 284.933044,137.166896 284.933044,137.166896" style="stroke:#432F1D;stroke-width:2;"></path>
                    <path class="hair stroke-1" d="M210.391985,91.0433501 C208.368866,91.0433502 215.04732,90.8164962 215.04732,90.8164962 C215.04732,90.8164962 202.897899,82.6370622 202.8979,82.1040241 C202.8979,81.570986 223.087379,89.2292412 225.35483,89.2292421 C227.622281,89.2292428 209.862614,69.4982959 205.925617,68.45446 C201.98862,67.4106238 231.94182,77.6095236 238.721567,89.9861716 C245.501314,102.362819 236.090847,44.8321087 198.683263,28.2942046" style="stroke:#432F1D;stroke-width:2;"></path>
                </g>
                <path class="nose" d="M124.369586,252.537579 C124.369586,252.537579 119.230858,260.826388 122.89899,263.264569 C126.567123,265.702749 131.575994,263.350841 133.253318,265.961774 C139.438173,275.589159 150.113827,272.0096 154.005818,267.111544 C156.217968,264.327561 165.283669,264.256018 167.235375,261.410441 C169.187081,258.564863 162.383007,250.566445 162.383007,250.566445" style="stroke:#000000;stroke-width:2;"></path>
            </g>
            <g class="fg angry" transform="translate(55.000000, 174.000000)" style="display:none;">
                <path class="mouth" d="M29.5316712,121.086691 C45.7580716,118.233865 125.419049,116.384649 145.554338,127.420977" style="stroke:#000000;stroke-width:4;"></path>
                <path class="eyebrow left" d="M0.461706316,12.1229574 C0.461706316,12.1229574 11.6918928,0.726226396 23.7469465,0.726227078 C35.8020002,0.726227729 75.391554,23.0790999 75.391554,23.0790999" style="stroke:#432F1D;stroke-width:7;"></path>
                <path class="eyebrow right" d="M101.222433,23.4140147 C101.222433,23.4140147 135.722129,-0.193182498 144.434378,-0.193182062 C153.146628,-0.193181579 168.796367,8.46484208 168.796367,8.46484208" style="stroke:#432F1D;stroke-width:7;"></path>
            </g>
            <g class="fg scared" transform="translate(55.000000, 160.000000)" style="display:none;">
                <path class="mouth" d="M31.7886743,126.208704 C72.6272287,117.019761 73.3070955,149.614028 141.458421,122.032887" style="stroke:#000000;stroke-width:4;"></path>
                <path class="eyebrow left" d="M0.461706316,34.1229574 C0.461706316,34.1229574 8.84823906,16.6177223 15.640908,14.2017039 C22.4335767,11.7856848 58.2140409,2.271756 58.2140409,2.271756" style="stroke:#432F1D;stroke-width:7;"></path>
                <path class="eyebrow right" d="M108.334571,0.318032101 C108.334571,0.318032101 149.363225,10.708565 158.205148,14.2494243 C167.047072,17.7902837 168.796367,30.4648421 168.796367,30.4648421" style="stroke:#432F1D;stroke-width:7;"></path>
            </g>
            <g class="fg sad" transform="translate(55.000000, 174.000000)" style="display:none;">
                <path class="mouth" d="M29.5515336,123.830856 C59.6784321,111.853623 95.1232659,103.773366 134.351281,123.830856" style="stroke:#000000;stroke-width:4;"></path>
                <path class="eyebrow left" d="M0.461706316,23.1229574 C0.461706316,23.1229574 8.84823906,5.61772228 15.640908,3.20170386 C22.4335767,0.785684786 70.8753138,0.369916243 70.8753138,0.369916243" style="stroke:#432F1D;stroke-width:7;"></path>
                <path class="eyebrow right" d="M103.656554,0.586703548 C103.656554,0.586703548 149.363225,0.708564985 158.205148,4.24942433 C167.047072,7.79028369 168.796367,20.4648421 168.796367,20.4648421" style="stroke:#432F1D;stroke-width:7;"></path>
            </g>
            <g class="fg happy" transform="translate(55.000000, 146.000000)" style="display:none;">
                <path class="mouth" d="M24.0915047,129.356633 C76.9447762,167.761468 112.371748,161.052276 146.649084,129.356633" style="stroke:#000000;stroke-width:4;"></path>
                <path class="eyebrow left" d="M0.461706316,26.1229574 C0.461706316,26.1229574 7.24248703,5.38527943 29.5422289,0.780344525 C51.8419687,-3.82459122 70.8753138,12.3699162 70.8753138,12.3699162" style="stroke:#432F1D;stroke-width:7;"></path>
                <path class="eyebrow right" d="M103.656554,12.5867035 C103.656554,12.5867035 121.652376,-4.02086359 144.248271,1.37470748 C166.844165,6.77027873 168.796367,22.4648421 168.796367,22.4648421" style="stroke:#432F1D;stroke-width:7;"></path>
            </g>
            <g class="fg neutral" transform="translate(55.000000, 167.000000)">
                <path class="mouth" d="M53.4236535,124.321188 C56.6623077,126.089233 104.246289,133.745463 122.03528,126.685838" style="stroke:#000000;stroke-width:4;"></path>
                <path class="eyebrow left" d="M0.461706316,21.1229574 C0.461706316,21.1229574 8.84823906,3.61772228 15.640908,1.20170386 C22.4335767,-1.21431521 70.8753138,7.36991624 70.8753138,7.36991624" style="stroke:#432F1D;stroke-width:7;"></path>
                <path class="eyebrow right" d="M103.656554,7.58670355 C103.656554,7.58670355 149.363225,-2.29143502 158.205148,1.24942433 C167.047072,4.79028369 168.796367,17.4648421 168.796367,17.4648421" style="stroke:#432F1D;stroke-width:7;"></path>
            </g>
        </g>
    </g>
</svg>
