<?xml version="1.0" encoding="UTF-8" standalone="no"?>
<svg width="291px" height="336px" viewBox="0 0 291 336" version="1.1" xmlns="http://www.w3.org/2000/svg" xmlns:xlink="http://www.w3.org/1999/xlink">
    <title>face_calvin_merge2</title>
    <defs></defs>
    <g id="Page-1" class="Page 1" style="stroke:none;stroke-width:1;fill:none;" fill-rule="evenodd">
        <g id="merge2" class="merge2" transform="translate(2.000000, 2.000000)">
            <g id="bg-statics" class="bg statics" transform="translate(60.000000, 172.000000)" style="fill:#FFFFFF;">
                <path id="eye-left-white" class="eye left white" d="M40,80 C62.0913911,80 80,62.0913911 80,40 C80,17.9086089 62.0913911,0 40,0 C17.9086089,0 0,17.9086089 0,40 C0,62.0913911 17.9086089,80 40,80 Z"></path>
                <path id="eye-right-white" class="eye right white" d="M123,80 C145.091391,80 163,62.0913911 163,40 C163,17.9086089 145.091391,0 123,0 C100.908609,0 83,17.9086089 83,40 C83,62.0913911 100.908609,80 123,80 Z"></path>
            </g>
            <g id="eyes" class="eyes" transform="translate(40.000000, 141.000000)">
                <g id="eye-right" class="eye right" transform="translate(115.000000, 0.000000)">
                    <g id="eye-right-gaze" class="eye right gaze" transform="translate(14.000000, 70.000000)">
                        <circle id="eye-right-iris-neutral" class="eye left iris emotion neutral" style="fill:#417505;" cx="12.5" cy="8.5" r="8.5"></circle>
                        <circle id="eye-right-pupil-neutral" class="eye left pupil emotion neutral" style="fill:#000000;" cx="12.5" cy="8.5" r="2.5"></circle>
                        <circle id="eye-right-iris-happy" class="eye left iris emotion happy" style="fill:#417505;display:none;" cx="12.5" cy="8.5" r="8.5"></circle>
                        <circle id="eye-right-pupil-happy" class="eye left iris emotion happy" style="fill:#000000;display:none;" cx="12.5" cy="8.5" r="2.5"></circle>
                        <circle id="eye-right-iris-sad" class="eye left iris emotion sad" style="fill:#417505;display:none;" cx="8.5" cy="15.5" r="8.5"></circle>
                        <circle id="eye-right-pupil-sad" class="eye left pupil emotion sad" style="fill:#000000;display:none;" cx="8.5" cy="15.5" r="2.5"></circle>
                        <circle id="eye-right-iris-scared" class="eye left iris emotion scared" style="fill:#417505;display:none;" cx="8.5" cy="10.5" r="8.5"></circle>
                        <circle id="eye-right-pupil-scared" class="eye left pupil emotion scared" style="fill:#000000;display:none;" cx="8.5" cy="10.5" r="2.5"></circle>
                        <circle id="eye-right-iris-angry" class="eye left iris emotion angry" style="fill:#417505;display:none;" cx="12.5" cy="8.5" r="8.5"></circle>
                        <circle id="eye-right-pupil-angry" class="eye left pupil emotion angry" style="fill:#000000;display:none;" cx="12.5" cy="8.5" r="2.5"></circle>
                    </g>
                    <path id="eye-right-lid-neutral" class="eye right lid emotion neutral" d="M19.0718453,71.8489378 C30.0363687,61.2581448 49.0177895,51.4658226 78.9378816,58.1115873 C93.8742236,42.38309 63.8650731,-0.443091772 23.1873123,8.12071102 C-17.4904487,16.6845121 8.10732177,82.4397306 19.0718453,71.8489378 Z" style="stroke:#000000;stroke-width:3;fill:#FFD6A1;" transform="translate(41.500000, 40.000000) scale(-1, 1) translate(-41.500000, -40.000000) "></path>
                    <path id="eye-right-lid-happy" class="eye right lid emotion happy" d="M19.0718453,64.8489378 C30.0363687,54.2581448 49.0177895,44.4658226 78.9378816,51.1115873 C93.8742236,35.38309 63.8650731,-7.44309177 23.1873123,1.12071102 C-17.4904487,9.68451211 8.10732177,75.4397306 19.0718453,64.8489378 Z" style="stroke:#000000;stroke-width:3;fill:#FFD6A1;display:none;" transform="translate(41.500000, 33.000000) scale(-1, 1) translate(-41.500000, -33.000000) "></path>
                    <path id="eye-right-lid-sad" class="eye right lid emotion sad" d="M19.0718453,82.8489378 C34.4709587,86.9084015 53.8323631,79.6581001 78.9378816,69.1115873 C93.8742236,53.38309 63.8650731,10.5569082 23.1873123,19.120711 C-17.4904487,27.6845121 3.67273134,78.7894757 19.0718453,82.8489378 Z" style="stroke:#000000;stroke-width:3;fill:#FFD6A1;display:none;" transform="translate(41.500000, 51.000000) scale(-1, 1) translate(-41.500000, -51.000000) "></path>
                    <path id="eye-right-lid-scared" class="eye right lid emotion scared" d="M19.0718453,71.8489378 C30.0363687,61.2581448 49.0177895,51.4658226 78.9378816,58.1115873 C93.8742236,42.38309 63.8650731,-0.443091772 23.1873123,8.12071102 C-17.4904487,16.6845121 8.10732177,82.4397306 19.0718453,71.8489378 Z" style="stroke:#000000;stroke-width:3;fill:#FFD6A1;display:none;" transform="translate(41.500000, 40.000000) scale(-1, 1) translate(-41.500000, -40.000000) "></path>
                    <path id="eye-right-lid-angry" class="eye right lid emotion angry" d="M19.0718453,65.8489378 C30.0363687,55.2581448 49.0177895,45.4658226 78.9378816,52.1115873 C93.8742236,36.38309 63.8650731,-6.44309177 23.1873123,2.12071102 C-17.4904487,10.6845121 8.10732177,76.4397306 19.0718453,65.8489378 Z" style="stroke:#000000;stroke-width:3;fill:#FFD6A1;display:none;" transform="translate(41.500000, 34.000000) scale(-1, 1) translate(-41.500000, -34.000000) "></path>
                </g>
                <g id="eye-left" class="eye left">
                    <g id="eye-left-gaze" class="eye left gaze" transform="translate(48.000000, 68.000000)">
                        <circle id="eye-left-iris-neutral" class="eye left iris emotion neutral" style="fill:#417505;" cx="12.5" cy="8.5" r="8.5"></circle>
                        <circle id="eye-left-pupil-neutral" class="eye left pupil emotion neutral" style="fill:#000000;" cx="12.5" cy="8.5" r="2.5"></circle>
                        <circle id="eye-left-iris-happy" class="eye left iris emotion happy" style="fill:#417505;display:none;" cx="12.5" cy="8.5" r="8.5"></circle>
                        <circle id="eye-left-pupil-happy" class="eye left iris emotion happy" style="fill:#000000;display:none;" cx="12.5" cy="8.5" r="2.5"></circle>
                        <circle id="eye-left-iris-sad" class="eye left iris emotion sad" style="fill:#417505;display:none;" cx="16.5" cy="16.5" r="8.5"></circle>
                        <circle id="eye-left-pupil-sad" class="eye left pupil emotion sad" style="fill:#000000;display:none;" cx="16.5" cy="16.5" r="2.5"></circle>
                        <circle id="eye-left-iris-scared" class="eye left iris emotion scared" style="fill:#417505;display:none;" cx="8.5" cy="10.5" r="8.5"></circle>
                        <circle id="eye-left-pupil-scared" class="eye left pupil emotion scared" style="fill:#000000;display:none;" cx="8.5" cy="10.5" r="2.5"></circle>
                        <circle id="eye-left-iris-angry" class="eye left iris emotion angry" style="fill:#417505;display:none;" cx="12.5" cy="8.5" r="8.5"></circle>
                        <circle id="eye-left-pupil-angry" class="eye left pupil emotion angry" style="fill:#000000;display:none;" cx="12.5" cy="8.5" r="2.5"></circle>
                    </g>
                    <path id="eye-left-lid-neutral" class="eye left lid emotion neutral" d="M24.6640879,71.894775 C35.5767428,61.3323856 54.4683707,51.5663256 84.2469237,58.1942669 C99.1126082,42.5079521 69.2454181,-0.203373449 28.7600864,8.33746195 C-11.7252457,16.8782956 13.7514328,82.4571642 24.6640879,71.894775 Z" style="stroke:#000000;stroke-width:3;fill:#FFD6A1;"></path>
                    <path id="eye-left-lid-happy" class="eye left lid emotion happy" d="M24.6640879,64.894775 C35.5767428,54.3323856 54.4683707,44.5663256 84.2469237,51.1942669 C99.1126082,35.5079521 69.2454181,-7.20337345 28.7600864,1.33746195 C-11.7252457,9.87829564 13.7514328,75.4571642 24.6640879,64.894775 Z" style="stroke:#000000;stroke-width:3;fill:#FFD6A1;display:none;"></path>
                    <path id="eye-left-lid-sad" class="eye left lid emotion sad" d="M19.6640879,85.894775 C36.345957,85.8947749 52.3512976,82.7808032 79.2469237,72.1942669 C94.1126082,56.5079521 64.2454181,13.7966266 23.7600864,22.337462 C-16.7252457,30.8782956 2.63757127,85.8947771 19.6640879,85.894775 Z" style="stroke:#000000;stroke-width:3;fill:#FFD6A1;display:none;"></path>
                    <path id="eye-left-lid-scared" class="eye left lid emotion scared" d="M24.6640879,71.894775 C35.5767428,61.3323856 54.4683707,51.5663256 84.2469237,58.1942669 C99.1126082,42.5079521 69.2454181,-0.203373449 28.7600864,8.33746195 C-11.7252457,16.8782956 13.7514328,82.4571642 24.6640879,71.894775 Z" style="stroke:#000000;stroke-width:3;fill:#FFD6A1;display:none;"></path>
                    <path id="eye-left-lid-angry" class="eye left lid emotion angry" d="M24.6640879,65.894775 C35.5767428,55.3323856 54.4683707,45.5663256 84.2469237,52.1942669 C99.1126082,36.5079521 69.2454181,-6.20337345 28.7600864,2.33746195 C-11.7252457,10.8782956 13.7514328,76.4571642 24.6640879,65.894775 Z" style="stroke:#000000;stroke-width:3;fill:#FFD6A1;display:none;"></path>
                </g>
            </g>
            <g id="fg-statics" class="fg statics">
                <path id="head" class="head" d="M48.5756287,263.191764 C60.6983777,334.720997 205.512129,369.304859 233.104024,271.690131 C290.21781,258.71442 270.946906,162.323302 233.689114,227.281532 C248.2237,167.067561 273.493783,139.385655 244.678747,77.8532431 C215.863712,16.3208302 49.8040545,11.6533515 24.5895848,71.8011368 C-0.624882185,131.948923 41.4777717,197.189976 46.7303447,233.503078 C8.72861448,140.285793 -10.3066676,271.690128 48.5756287,263.191764 Z M88.7333799,185.653902 C63.3455587,188.056988 71.2633771,211.5698 77.6504394,224.302149 C84.037502,237.034497 109.674389,249.232428 119.45128,231.512693 C125.386297,220.756009 108.554526,183.77773 88.7333799,185.653902 Z M162.214683,231.279121 C162.214677,239.440468 195.978858,258.600881 213.60029,208.911032 C217.960273,196.616521 194.729049,172.415404 174.975439,194.587768 C162.214683,208.911032 162.214685,227.213259 162.214683,231.279121 Z" style="stroke:#000000;stroke-width:3;fill:#FFD6A1;"></path>
                <path id="ear-left-stroke" class="ear left stroke" d="M37.3162694,254.942006 C37.3162694,254.942006 23.4149184,245.99383 27.9281578,236.308529 C29.7966036,232.29889 14.5839374,228.420527 22.6376268,242.511616" style="stroke:#000000;stroke-width:2;"></path>
                <path id="ear-right-stroke" class="ear right stroke" d="M257.131396,237.250399 C257.131396,232.730952 253.435288,226.042274 238.366643,243.215151" style="stroke:#000000;stroke-width:2;"></path>
                <g id="hair" class="hair">
                    <path d="M17.1085869,201.791729 C33.0992816,204.844249 39.0261417,214.900716 44.8196164,232.478508 C46.9746539,220.766124 52.3437155,192.589135 46.9746539,186.952679 C41.6055923,181.316224 33.5255256,134.28927 40.2500897,134.289282 C46.9746538,134.289292 81.2937581,109.268079 81.2937584,106.024932 C81.2937587,102.781786 66.8857886,145.498653 62.3484901,145.498654 C57.8111916,145.498655 124.01857,121.179029 124.018568,113.601981 C124.018566,106.024932 123.303753,137.56155 117.699066,143.198005 C112.09438,148.834461 175.522382,158.129715 211.546449,109.564595 C217.442356,106.024932 224.873788,141.151515 224.873794,150.502365 C224.873799,159.853214 242.013487,136.359599 242.01349,131.731829 C242.013493,127.104059 231.452747,231.581017 231.452747,231.581017 C231.452747,231.581017 245.412831,229.91311 263.765072,201.791728 C282.117314,173.670345 311.014804,107.206871 251.872654,74.4777249 C297.292576,51.8763054 257.331726,57.9231183 249.67261,61.9657995 C246.307682,51.8392413 235.479543,16.2572982 228.458463,16.2572954 C228.45847,24.8324382 237.541923,51.8471849 237.541919,54.3596291 C200.8348,-21.4267371 69.3765348,-15.5480673 17.108586,59.1647793 C-11.4178625,99.9410554 1.11789207,198.739208 17.1085869,201.791729 Z" style="stroke:#000000;stroke-width:3;fill:#8B572A;"></path>
                    <path id="hair-stroke-3" class="hair stroke-3" d="M98.8160039,101.446766 C70.4545915,81.4570565 -62.6330224,181.615111 60.1065969,35.0822281" style="stroke:#432F1D;stroke-width:2;"></path>
                    <path id="hair-stroke-2" class="hair stroke-2" d="M240.765615,190.453347 C259.567388,98.148629 267.848374,150.793592 267.848377,169.32538 C267.848379,187.857169 284.933044,137.166896 284.933044,137.166896" style="stroke:#432F1D;stroke-width:2;"></path>
                    <path id="hair-stroke-1" class="hair stroke-1" d="M210.391985,91.0433501 C208.368866,91.0433502 215.04732,90.8164962 215.04732,90.8164962 C215.04732,90.8164962 202.897899,82.6370622 202.8979,82.1040241 C202.8979,81.570986 223.087379,89.2292412 225.35483,89.2292421 C227.622281,89.2292428 209.862614,69.4982959 205.925617,68.45446 C201.98862,67.4106238 231.94182,77.6095236 238.721567,89.9861716 C245.501314,102.362819 236.090847,44.8321087 198.683263,28.2942046" style="stroke:#432F1D;stroke-width:2;"></path>
                </g>
                <path id="nose" class="nose" d="M124.369586,252.537579 C124.369586,252.537579 119.230858,260.826388 122.89899,263.264569 C126.567123,265.702749 131.575994,263.350841 133.253318,265.961774 C139.438173,275.589159 150.113827,272.0096 154.005818,267.111544 C156.217968,264.327561 165.283669,264.256018 167.235375,261.410441 C169.187081,258.564863 162.383007,250.566445 162.383007,250.566445" style="stroke:#000000;stroke-width:2;"></path>
            </g>
            <g id="foreground" class="foreground" transform="translate(55.000000, 146.000000)">
                <path id="mouth-neutral" class="mouth emotion neutral" d="M53.4236535,145.321188 C56.6623077,147.089233 104.246289,154.745463 122.03528,147.685838" style="stroke:#000000;stroke-width:4;"></path>
                <path id="eyebrow-left-neutral" class="eyebrow left emotion neutral" d="M0.461706316,42.1229574 C0.461706316,42.1229574 8.84823906,24.6177223 15.640908,22.2017039 C22.4335767,19.7856848 70.8753138,28.3699162 70.8753138,28.3699162" style="stroke:#432F1D;stroke-width:7;"></path>
                <path id="eyebrow-right-neutral" class="eyebrow right emotion neutral" d="M103.656554,28.5867035 C103.656554,28.5867035 149.363225,18.708565 158.205148,22.2494243 C167.047072,25.7902837 168.796367,38.4648421 168.796367,38.4648421" style="stroke:#432F1D;stroke-width:7;"></path>
                <path id="mouth-happy" class="mouth emotion happy" d="M24.0915047,129.356633 C76.9447762,167.761468 112.371748,161.052276 146.649084,129.356633" style="stroke:#000000;stroke-width:4;display:none;"></path>
                <path id="eyebrow-left-happy" class="eyebrow left emotion happy" d="M0.461706316,26.1229574 C0.461706316,26.1229574 7.24248703,5.38527943 29.5422289,0.780344525 C51.8419687,-3.82459122 70.8753138,12.3699162 70.8753138,12.3699162" style="stroke:#432F1D;stroke-width:7;display:none;"></path>
                <path id="eyebrow-right-happy" class="eyebrow right emotion happy" d="M103.656554,12.5867035 C103.656554,12.5867035 121.652376,-4.02086359 144.248271,1.37470748 C166.844165,6.77027873 168.796367,22.4648421 168.796367,22.4648421" style="stroke:#432F1D;stroke-width:7;display:none;"></path>
                <path id="mouth-sad" class="mouth emotion sad" d="M29.5515336,151.830856 C59.6784321,139.853623 95.1232659,131.773366 134.351281,151.830856" style="stroke:#000000;stroke-width:4;display:none;"></path>
                <path id="eyebrow-left-sad" class="eyebrow left emotion sad" d="M0.461706316,51.1229574 C0.461706316,51.1229574 8.84823906,33.6177223 15.640908,31.2017039 C22.4335767,28.7856848 70.8753138,28.3699162 70.8753138,28.3699162" style="stroke:#432F1D;stroke-width:7;display:none;"></path>
                <path id="eyebrow-right-sad" class="eyebrow right emotion sad" d="M103.656554,28.5867035 C103.656554,28.5867035 149.363225,28.708565 158.205148,32.2494243 C167.047072,35.7902837 168.796367,48.4648421 168.796367,48.4648421" style="stroke:#432F1D;stroke-width:7;display:none;"></path>
                <path id="mouth-scared" class="mouth emotion scared" d="M31.7886743,140.208704 C72.6272287,131.019761 73.3070955,163.614028 141.458421,136.032887" style="stroke:#000000;stroke-width:4;display:none;"></path>
                <path id="eyebrow-left-scared" class="eyebrow left emotion scared" d="M0.461706316,48.1229574 C0.461706316,48.1229574 8.84823906,30.6177223 15.640908,28.2017039 C22.4335767,25.7856848 58.2140409,16.271756 58.2140409,16.271756" style="stroke:#432F1D;stroke-width:7;display:none;"></path>
                <path id="eyebrow-right-scared" class="eyebrow right emotion scared" d="M108.334571,14.3180321 C108.334571,14.3180321 149.363225,24.708565 158.205148,28.2494243 C167.047072,31.7902837 168.796367,44.4648421 168.796367,44.4648421" style="stroke:#432F1D;stroke-width:7;display:none;"></path>
                <path id="mouth-angry" class="mouth emotion angry" d="M29.5316712,149.086691 C45.7580716,146.233865 125.419049,144.384649 145.554338,155.420977" style="stroke:#000000;stroke-width:4;display:none;"></path>
                <path id="eyebrow-left-angry" class="eyebrow left emotion angry" d="M0.461706316,40.1229574 C0.461706316,40.1229574 11.6918928,28.7262264 23.7469465,28.7262271 C35.8020002,28.7262277 75.391554,51.0790999 75.391554,51.0790999" style="stroke:#432F1D;stroke-width:7;display:none;"></path>
                <path id="eyebrow-right-angry" class="eyebrow right emotion angry" d="M101.222433,51.4140147 C101.222433,51.4140147 135.722129,27.8068175 144.434378,27.8068179 C153.146628,27.8068184 168.796367,36.4648421 168.796367,36.4648421" style="stroke:#432F1D;stroke-width:7;display:none;"></path>
            </g>
        </g>
    </g>
</svg>
